# xmcd CD database file
#
# Track frame offsets:
#	150
#	15102
#	32372
#	47302
#	57345
#	74435
#	88560
#	104727
#	118482
#	131440
#	147497
#	160530
#	175905
#	190652
#	207317
#	223492
#	236697
#	252345
#
# Disc length: 3509 seconds
#
# Revision: 2
# Processed by: cddbd v1.5.1PL2 Copyright (c) Steve Scherf et al.
# Submitted via: CDex 1.51
#
DISCID=020db312
DTITLE=Ray Stevens - The Most of
DYEAR=1994
DGENRE=Country
TTITLE0=The Streak
TTITLE1=Ahab The Arab
TTITLE2=Harry The Hairy Ape
TTITLE3=Turn Your Radio On
TTITLE4=Along Came Jones
TTITLE5=Have A Little Talk With Myself
TTITLE6=Little Egypt
TTITLE7=Funny Man
TTITLE8=Freddie Feelgood (And His Funky Little Five Piece Band)
TTITLE9=Everything Is Beautiful
TTITLE10=Misty
TTITLE11=Mr Businessman
TTITLE12=Gitarzan
TTITLE13=Bridget The Midget
TTITLE14=Mr Custer
TTITLE15=Raindrops Keep Falling On My Head
TTITLE16=Indian Love Call
TTITLE17=Jeremiah Peabody's Polyunsaturated Quick Dissolving, Fast Acting, Pleasant Tasting Green and Purple P
EXTD=YEAR: 1994
EXTT0=
EXTT1=
EXTT2=
EXTT3=
EXTT4=
EXTT5=
EXTT6=
EXTT7=
EXTT8=
EXTT9=
EXTT10=
EXTT11=
EXTT12=
EXTT13=
EXTT14=
EXTT15=
EXTT16=
EXTT17=
PLAYORDER=
